<svg width="80" height="80" viewBox="0 0 80 80" fill="none" xmlns="http://www.w3.org/2000/svg">
  <!-- 배경 원 -->
  <circle cx="40" cy="40" r="38" fill="url(#gradient)" stroke="#fff" stroke-width="4"/>
  
  <!-- 망치 모양 -->
  <g transform="translate(20, 25)">
    <!-- 망치 머리 -->
    <rect x="15" y="8" width="20" height="12" rx="2" fill="#fff"/>
    <rect x="17" y="10" width="16" height="8" rx="1" fill="#ec4899"/>
    
    <!-- 망치 손잡이 -->
    <rect x="23" y="20" width="4" height="20" rx="2" fill="#fff"/>
    <rect x="24" y="21" width="2" height="18" rx="1" fill="#f97316"/>
    
    <!-- 반짝이 효과 -->
    <circle cx="12" cy="5" r="2" fill="#fbbf24" opacity="0.8"/>
    <circle cx="38" cy="8" r="1.5" fill="#fbbf24" opacity="0.6"/>
    <circle cx="35" cy="15" r="1" fill="#fbbf24" opacity="0.7"/>
    
    <!-- 작은 별 모양들 -->
    <path d="M8 12 L9 14 L11 14 L9.5 15.5 L10 17.5 L8 16 L6 17.5 L6.5 15.5 L5 14 L7 14 Z" fill="#fbbf24" opacity="0.6"/>
    <path d="M40 20 L41 22 L43 22 L41.5 23.5 L42 25.5 L40 24 L38 25.5 L38.5 23.5 L37 22 L39 22 Z" fill="#fbbf24" opacity="0.5"/>
  </g>
  
  <!-- 그라디언트 정의 -->
  <defs>
    <linearGradient id="gradient" x1="0%" y1="0%" x2="100%" y2="100%">
      <stop offset="0%" style="stop-color:#ec4899;stop-opacity:1" />
      <stop offset="50%" style="stop-color:#f97316;stop-opacity:1" />
      <stop offset="100%" style="stop-color:#fbbf24;stop-opacity:1" />
    </linearGradient>
  </defs>
</svg>